<mxfile host="app.diagrams.net" agent="Mozilla/5.0 (Windows NT 10.0; Win64; x64) AppleWebKit/537.36 (KHTML, like Gecko) Chrome/138.0.0.0 Safari/537.36" version="26.0.11">
  <diagram name="ページ1" id="itKDIyLO16evnQG4bmql">
    <mxGraphModel dx="1434" dy="784" grid="1" gridSize="10" guides="1" tooltips="1" connect="1" arrows="1" fold="1" page="1" pageScale="1" pageWidth="827" pageHeight="1169" math="0" shadow="0">
      <root>
        <mxCell id="0" />
        <mxCell id="1" parent="0" />
        <mxCell id="sGV4BFjlRqZmNDSVC_fr-32" value="&lt;span style=&quot;font-size: 13px; font-weight: 700;&quot;&gt;PC(Windows11)&lt;/span&gt;&lt;div style=&quot;font-size: 13px; font-weight: 700;&quot;&gt;CPU i7 8700K&lt;/div&gt;&lt;div style=&quot;font-size: 13px; font-weight: 700;&quot;&gt;GPU RTX3060&lt;/div&gt;&lt;div style=&quot;font-size: 13px; font-weight: 700;&quot;&gt;RAM&amp;nbsp;16G&lt;/div&gt;" style="rounded=0;whiteSpace=wrap;html=1;align=left;verticalAlign=top;" parent="1" vertex="1">
          <mxGeometry y="160" width="670" height="390" as="geometry" />
        </mxCell>
        <mxCell id="sGV4BFjlRqZmNDSVC_fr-29" style="edgeStyle=orthogonalEdgeStyle;rounded=0;orthogonalLoop=1;jettySize=auto;html=1;" parent="1" source="sGV4BFjlRqZmNDSVC_fr-2" target="sGV4BFjlRqZmNDSVC_fr-28" edge="1">
          <mxGeometry relative="1" as="geometry" />
        </mxCell>
        <mxCell id="sGV4BFjlRqZmNDSVC_fr-31" value="" style="edgeStyle=orthogonalEdgeStyle;rounded=0;orthogonalLoop=1;jettySize=auto;html=1;" parent="1" source="sGV4BFjlRqZmNDSVC_fr-2" target="sGV4BFjlRqZmNDSVC_fr-28" edge="1">
          <mxGeometry relative="1" as="geometry" />
        </mxCell>
        <mxCell id="sGV4BFjlRqZmNDSVC_fr-2" value="&lt;div&gt;注文&lt;/div&gt;" style="rounded=0;whiteSpace=wrap;html=1;fontStyle=1;fontSize=13;fillColor=#dae8fc;strokeColor=#6c8ebf;" parent="1" vertex="1">
          <mxGeometry x="110" y="345" width="170" height="95" as="geometry" />
        </mxCell>
        <mxCell id="K_xBf0AL3Xeo3qCH9Qg6-10" style="edgeStyle=orthogonalEdgeStyle;rounded=0;orthogonalLoop=1;jettySize=auto;html=1;entryX=0;entryY=0.5;entryDx=0;entryDy=0;strokeWidth=2;" edge="1" parent="1" source="sGV4BFjlRqZmNDSVC_fr-4" target="sGV4BFjlRqZmNDSVC_fr-6">
          <mxGeometry relative="1" as="geometry" />
        </mxCell>
        <mxCell id="sGV4BFjlRqZmNDSVC_fr-4" value="&lt;div&gt;チャート・株価表示&lt;/div&gt;" style="rounded=0;whiteSpace=wrap;html=1;fontStyle=1;fontSize=13;fillColor=#dae8fc;strokeColor=#6c8ebf;" parent="1" vertex="1">
          <mxGeometry x="110" y="250" width="170" height="95" as="geometry" />
        </mxCell>
        <mxCell id="K_xBf0AL3Xeo3qCH9Qg6-5" style="edgeStyle=orthogonalEdgeStyle;rounded=0;orthogonalLoop=1;jettySize=auto;html=1;exitX=0.5;exitY=1;exitDx=0;exitDy=0;strokeWidth=2;" edge="1" parent="1" source="sGV4BFjlRqZmNDSVC_fr-5" target="sGV4BFjlRqZmNDSVC_fr-2">
          <mxGeometry relative="1" as="geometry" />
        </mxCell>
        <mxCell id="sGV4BFjlRqZmNDSVC_fr-5" value="python" style="swimlane;fontStyle=1;childLayout=stackLayout;horizontal=1;startSize=30;horizontalStack=0;resizeParent=1;resizeParentMax=0;resizeLast=0;collapsible=1;marginBottom=0;whiteSpace=wrap;html=1;fontSize=13;fillColor=#ffe6cc;strokeColor=#d79b00;" parent="1" vertex="1">
          <mxGeometry x="380" y="230" width="180" height="140" as="geometry" />
        </mxCell>
        <mxCell id="sGV4BFjlRqZmNDSVC_fr-6" value="①株式情報捕捉&lt;div&gt;&lt;span style=&quot;background-color: transparent; color: light-dark(rgb(0, 0, 0), rgb(255, 255, 255));&quot;&gt;&amp;nbsp; &amp;nbsp; OpenCV＋Tesseract OCR&lt;/span&gt;&lt;/div&gt;" style="text;strokeColor=#d6b656;fillColor=#fff2cc;align=left;verticalAlign=middle;spacingLeft=4;spacingRight=4;overflow=hidden;points=[[0,0.5],[1,0.5]];portConstraint=eastwest;rotatable=0;whiteSpace=wrap;html=1;fontStyle=0;fontSize=13;" parent="sGV4BFjlRqZmNDSVC_fr-5" vertex="1">
          <mxGeometry y="30" width="180" height="40" as="geometry" />
        </mxCell>
        <mxCell id="sGV4BFjlRqZmNDSVC_fr-7" value="②買いor売りシグナル出力" style="text;strokeColor=#d6b656;fillColor=#fff2cc;align=left;verticalAlign=middle;spacingLeft=4;spacingRight=4;overflow=hidden;points=[[0,0.5],[1,0.5]];portConstraint=eastwest;rotatable=0;whiteSpace=wrap;html=1;fontStyle=0;fontSize=13;" parent="sGV4BFjlRqZmNDSVC_fr-5" vertex="1">
          <mxGeometry y="70" width="180" height="30" as="geometry" />
        </mxCell>
        <mxCell id="K_xBf0AL3Xeo3qCH9Qg6-1" value="➂注文発注&lt;div&gt;&amp;nbsp; &amp;nbsp; pyautogui&amp;nbsp;&lt;/div&gt;" style="text;strokeColor=#d6b656;fillColor=#fff2cc;align=left;verticalAlign=middle;spacingLeft=4;spacingRight=4;overflow=hidden;points=[[0,0.5],[1,0.5]];portConstraint=eastwest;rotatable=0;whiteSpace=wrap;html=1;fontStyle=0;fontSize=13;" vertex="1" parent="sGV4BFjlRqZmNDSVC_fr-5">
          <mxGeometry y="100" width="180" height="40" as="geometry" />
        </mxCell>
        <mxCell id="sGV4BFjlRqZmNDSVC_fr-28" value="【日次】結果出力(csv)" style="shape=cylinder3;whiteSpace=wrap;html=1;boundedLbl=1;backgroundOutline=1;size=15;fillColor=#d5e8d4;strokeColor=#82b366;" parent="1" vertex="1">
          <mxGeometry x="137.5" y="460" width="115" height="70" as="geometry" />
        </mxCell>
        <mxCell id="sGV4BFjlRqZmNDSVC_fr-30" value="&lt;span style=&quot;font-size: 13px;&quot;&gt;Hyper SBI2&lt;/span&gt;" style="swimlane;whiteSpace=wrap;html=1;fillColor=light-dark(#00035c, #ededed);fontColor=light-dark(#ffffff, #ededed);" parent="1" vertex="1">
          <mxGeometry x="110" y="230" width="170" height="210" as="geometry" />
        </mxCell>
      </root>
    </mxGraphModel>
  </diagram>
</mxfile>
